<?xml version="1.0" standalone="no"?>
<!DOCTYPE svg PUBLIC "-//W3C//DTD SVG 20010904//EN"
 "http://www.w3.org/TR/2001/REC-SVG-20010904/DTD/svg10.dtd">
<svg version="1.0" xmlns="http://www.w3.org/2000/svg"
 width="500.000000pt" height="500.000000pt" viewBox="0 0 500.000000 500.000000"
 preserveAspectRatio="xMidYMid meet">

<g transform="translate(0.000000,500.000000) scale(0.100000,-0.100000)"
fill="#000000" stroke="none">
<path d="M3805 2823 c-124 -16 -239 -53 -250 -81 -12 -32 15 -44 83 -36 l65 7
-7 -129 c-11 -210 -10 -318 3 -342 31 -58 91 -44 110 25 12 43 13 250 2 368
-4 44 -6 82 -4 84 2 3 41 7 88 9 67 4 88 8 102 24 16 18 16 22 2 46 -14 25
-19 27 -89 28 -41 1 -88 0 -105 -3z m170 -63 c-10 -11 -23 -20 -28 -20 -6 0 0
11 13 25 27 29 42 25 15 -5z m-363 -40 c6 0 9 -3 5 -6 -10 -10 -47 7 -47 22 0
13 2 13 16 0 8 -9 20 -16 26 -16z m142 -482 c7 -5 5 -8 -6 -8 -19 0 -38 29
-38 57 1 13 5 9 17 -12 9 -16 21 -33 27 -37z"/>
<path d="M1120 2797 c-51 -27 -99 -91 -130 -175 -32 -84 -25 -208 16 -288 39
-78 93 -116 171 -122 48 -3 64 0 93 20 80 54 125 155 85 188 -21 17 -43 6 -63
-32 -61 -114 -139 -103 -177 25 -21 70 -19 146 5 210 24 63 53 94 97 103 27 5
36 2 61 -25 47 -51 90 -14 57 49 -36 69 -133 91 -215 47z m39 0 c-2 -2 -20
-14 -39 -26 l-35 -23 28 26 c15 14 33 26 39 26 6 0 9 -1 7 -3z m162 -105 c-7
-2 -18 1 -23 6 -8 8 -4 9 13 5 13 -4 18 -8 10 -11z m28 -275 c-2 -1 -15 -11
-28 -22 l-24 -20 12 23 c6 12 19 22 28 22 9 0 14 -1 12 -3z m-239 -160 c13
-10 19 -17 12 -17 -7 0 -27 15 -45 33 -18 17 -24 25 -13 16 12 -9 32 -23 46
-32z"/>
<path d="M2341 2798 c-164 -81 -209 -390 -76 -523 99 -99 233 -81 302 41 25
43 29 84 11 102 -21 21 -47 13 -64 -20 -57 -113 -134 -118 -174 -12 -55 148 5
344 106 344 10 0 33 -14 51 -32 27 -26 35 -29 48 -18 35 29 5 102 -52 126 -47
20 -102 17 -152 -8z m29 -9 c-26 -17 -70 -40 -70 -35 0 7 64 46 75 46 6 0 3
-5 -5 -11z m169 -98 c-6 -2 -18 4 -27 13 -15 15 -15 15 10 4 15 -7 23 -15 17
-17z m10 -290 c-13 -11 -26 -18 -28 -15 -7 7 21 34 36 34 10 0 8 -6 -8 -19z
m-214 -155 c6 -4 -4 -1 -22 8 -18 9 -38 26 -44 39 -10 19 -7 18 22 -8 19 -16
39 -34 44 -39z"/>
<path d="M3345 2703 c-64 -23 -72 -45 -81 -232 -6 -128 -5 -143 11 -161 21
-23 67 -26 84 -6 7 8 15 39 18 69 l6 54 56 6 c74 8 99 39 67 83 -12 15 -25 19
-70 17 -51 -2 -56 0 -62 22 -12 48 -2 60 52 65 56 6 84 23 84 50 0 45 -84 61
-165 33z m-37 -49 c-7 -15 -14 -21 -16 -15 -2 7 2 18 8 26 18 22 21 18 8 -11z
m192 12 c0 -2 -7 -9 -15 -16 -13 -11 -14 -10 -9 4 5 14 24 23 24 12z m-10
-195 c-6 -12 -15 -21 -21 -21 -5 0 -2 11 7 25 20 30 31 26 14 -4z m-180 -146
c6 -3 10 -11 10 -17 0 -6 -9 -3 -20 7 -12 11 -20 30 -19 49 l1 31 9 -32 c5
-18 14 -35 19 -38z"/>
<path d="M1920 2703 c-24 -9 -61 -45 -76 -76 l-15 -28 -25 31 c-32 37 -66 39
-100 5 -34 -35 -51 -78 -59 -157 -8 -75 8 -118 45 -118 36 0 50 27 50 98 0 37
4 73 9 81 9 15 14 3 37 -104 8 -36 12 -40 39 -40 32 0 37 10 70 128 8 31 19
57 23 57 4 0 8 -46 10 -103 2 -83 5 -104 19 -115 24 -17 45 -11 61 18 17 32
11 243 -7 281 -10 21 -53 53 -64 48 -1 0 -9 -3 -17 -6z m-5 -30 c-11 -10 -28
-27 -38 -38 -10 -11 -15 -13 -11 -5 11 24 46 60 58 60 6 0 1 -8 -9 -17z m-165
-36 c0 -2 -14 -14 -31 -26 -28 -21 -30 -21 -20 -3 10 19 25 29 44 31 4 1 7 0
7 -2z m80 -227 c-1 -3 -7 4 -15 14 -8 11 -15 31 -15 45 1 22 3 19 15 -14 8
-22 15 -42 15 -45z m151 -31 c11 -7 11 -9 -3 -9 -19 0 -38 29 -37 57 0 13 4
10 13 -10 7 -16 19 -33 27 -38z m-298 19 c10 -16 15 -28 13 -28 -11 0 -36 33
-36 47 0 9 1 14 3 12 2 -2 11 -16 20 -31z"/>
<path d="M2680 2699 c-19 -6 -40 -17 -46 -25 -7 -9 -11 -74 -11 -181 0 -136 3
-171 15 -185 8 -10 21 -18 29 -18 24 0 53 39 53 72 0 32 1 31 33 -22 31 -52
90 -104 110 -97 6 2 16 12 24 24 12 18 11 24 -10 49 -13 16 -34 49 -47 73
l-22 45 24 21 c62 54 75 117 36 175 -45 66 -113 91 -188 69z m-20 -40 c-7 -11
-14 -18 -17 -15 -3 3 0 12 7 21 18 21 23 19 10 -6z m108 -55 c30 -21 25 -54
-10 -73 -15 -9 -29 -13 -31 -11 -2 3 -7 26 -9 53 -6 53 7 61 50 31z m39 -61
c-13 -13 -13 -10 -3 22 9 30 12 32 14 15 2 -13 -3 -29 -11 -37z m-144 -223
c-6 -7 -23 23 -23 40 0 8 6 4 13 -10 8 -14 12 -27 10 -30z m192 -48 c-7 -8
-35 7 -35 18 0 6 7 6 20 -2 10 -7 17 -14 15 -16z"/>
<path d="M3073 2685 c-24 -10 -39 -30 -66 -87 -43 -89 -79 -217 -75 -261 2
-27 8 -33 31 -35 25 -3 30 2 44 37 16 42 22 45 85 56 36 7 37 6 48 -33 13 -51
45 -65 72 -32 22 27 23 92 4 201 -17 92 -37 134 -76 154 -34 18 -27 18 -67 0z
m-4 -39 c-13 -14 -26 -23 -28 -20 -6 6 30 44 42 44 5 0 -1 -11 -14 -24z m41
-126 c0 -36 -2 -40 -25 -40 -29 0 -31 10 -10 50 21 41 35 37 35 -10z m59 -170
c11 -24 11 -24 -3 -6 -9 11 -16 24 -16 30 0 12 5 7 19 -24z m-209 -23 c0 -5
-4 -5 -10 -2 -5 3 -10 14 -10 23 0 15 2 15 10 2 5 -8 10 -19 10 -23z"/>
<path d="M1462 2680 c-29 -12 -38 -37 -23 -62 10 -16 8 -23 -8 -44 -77 -98 17
-249 121 -193 30 16 58 86 58 147 0 74 -22 116 -74 142 -48 23 -43 22 -74 10z
m0 -35 c3 -14 1 -25 -3 -25 -5 0 -9 11 -9 25 0 14 2 25 4 25 2 0 6 -11 8 -25z
m68 -120 c0 -53 -8 -75 -26 -75 -17 0 -19 51 -2 96 15 43 28 34 28 -21z m27
-12 c-3 -10 -5 -2 -5 17 0 19 2 27 5 18 2 -10 2 -26 0 -35z m-112 -73 c8 -16
28 -36 43 -44 15 -9 20 -15 12 -16 -25 0 -57 28 -68 60 -14 38 -7 39 13 0z"/>
<path d="M2077 2665 c-20 -20 -31 -129 -23 -228 7 -88 16 -107 52 -107 33 0
44 48 44 190 0 88 -4 121 -16 138 -18 26 -37 28 -57 7z m19 -21 c-9 -8 -16
-20 -16 -26 0 -6 -3 -9 -6 -6 -8 9 14 48 27 48 6 0 3 -7 -5 -16z m2 -300 c-4
-3 -12 5 -18 18 -12 22 -12 22 6 6 10 -10 15 -20 12 -24z"/>
</g>
</svg>
