<?xml version="1.0" standalone="no"?>
<!DOCTYPE svg PUBLIC "-//W3C//DTD SVG 20010904//EN"
 "http://www.w3.org/TR/2001/REC-SVG-20010904/DTD/svg10.dtd">
<svg version="1.0" xmlns="http://www.w3.org/2000/svg"
 width="500.000000pt" height="500.000000pt" viewBox="0 0 500.000000 500.000000"
 preserveAspectRatio="xMidYMid meet">

<g transform="translate(0.000000,500.000000) scale(0.100000,-0.100000)"
fill="#000000" stroke="none">
<path d="M2626 3460 c-82 -30 -143 -74 -179 -131 l-30 -49 -33 38 c-63 74
-210 132 -335 132 -91 0 -212 -28 -399 -91 -228 -78 -242 -81 -395 -88 l-130
-6 3 -115 c15 -543 18 -844 12 -1134 l-8 -339 35 -64 c20 -36 42 -67 50 -70 8
-3 69 6 136 21 188 40 340 56 543 56 198 0 404 -23 549 -61 74 -19 81 -19 149
-4 186 43 422 60 624 45 148 -11 356 -47 479 -83 104 -31 112 -26 149 88 27
83 27 87 16 187 -6 57 -34 306 -62 553 -28 248 -57 506 -65 575 -40 374 -52
470 -59 478 -4 3 -34 -4 -69 -16 -135 -47 -235 -39 -497 40 -155 48 -173 51
-295 55 -113 3 -138 1 -189 -17z m344 -44 c47 -13 144 -40 215 -60 161 -46
277 -56 379 -32 71 17 85 13 86 -21 0 -7 16 -155 35 -330 20 -175 37 -329 38
-342 2 -21 -4 -26 -38 -34 -81 -18 -270 -1 -415 36 -223 59 -300 70 -440 65
-139 -5 -201 -23 -289 -83 l-50 -33 -5 77 c-3 42 -10 130 -16 196 -5 66 -13
177 -16 246 -6 118 -5 130 15 173 71 146 274 203 501 142z m-785 -31 c33 -9
78 -28 100 -43 l40 -27 -65 -6 c-194 -18 -317 -166 -375 -451 -24 -120 -16
-278 26 -538 20 -120 29 -342 20 -452 l-4 -48 -38 0 -37 0 -6 63 c-3 34 -10
280 -16 547 -6 267 -13 587 -16 712 l-6 226 59 12 c32 7 63 14 68 15 31 10
199 3 250 -10z m-411 -307 c4 -150 9 -343 11 -428 2 -85 7 -307 11 -492 l7
-338 -99 0 c-132 0 -369 -36 -506 -76 -17 -5 -18 25 -17 533 1 296 -2 630 -6
743 l-7 205 93 1 c105 1 228 29 389 88 52 19 100 35 106 36 8 0 14 -80 18
-272z m610 -303 c15 -19 34 -35 42 -35 11 0 14 -16 15 -67 0 -38 4 -102 8
-143 4 -41 6 -77 4 -79 -2 -3 -16 3 -32 12 -25 14 -30 15 -41 3 -15 -20 20
-56 55 -56 22 0 25 -4 25 -36 l0 -37 -88 5 c-90 5 -136 21 -180 62 -64 57 -73
156 -27 270 l28 69 24 -47 c13 -25 27 -46 33 -46 5 0 28 36 52 80 24 44 46 80
49 80 4 0 19 -16 33 -35z m726 -144 c177 -40 170 -37 170 -77 0 -69 62 -152
132 -176 43 -15 43 -15 27 -68 -20 -66 -3 -69 93 -17 70 38 94 45 154 49 l71
5 18 -161 c19 -173 29 -272 41 -378 l7 -68 -49 15 c-27 8 -52 15 -56 15 -4 0
-14 25 -23 55 -12 43 -13 60 -4 77 7 13 9 39 4 72 -4 28 -6 79 -6 112 2 45 -2
66 -14 78 -21 21 -26 20 -69 -9 -26 -17 -50 -25 -81 -25 -31 0 -55 8 -81 25
-20 14 -48 25 -62 25 -24 0 -24 -1 -20 -67 3 -43 0 -83 -9 -108 -15 -43 -10
-80 13 -106 11 -12 12 -23 5 -43 -9 -22 -16 -26 -51 -26 -30 0 -42 5 -47 18
-3 9 -19 47 -35 84 -30 66 -30 68 -14 108 22 56 20 105 -10 175 -20 47 -26 79
-27 150 -2 98 -15 132 -55 142 -31 7 -63 -8 -116 -57 -35 -32 -51 -40 -82 -40
-22 0 -55 -4 -73 -10 -27 -7 -38 -6 -51 5 -31 28 -129 66 -162 63 -32 -3 -33
-5 -36 -53 -2 -30 5 -76 17 -113 17 -56 18 -67 5 -109 -8 -25 -14 -65 -14 -87
0 -48 30 -120 56 -134 16 -9 16 -14 1 -73 -8 -35 -18 -83 -22 -106 -6 -40 -9
-43 -56 -58 -28 -10 -52 -15 -54 -13 -2 2 -8 107 -14 233 -6 127 -16 306 -21
399 -11 165 -11 169 10 191 27 29 110 74 179 97 75 25 275 19 411 -11z m269
-62 c95 -22 191 -28 268 -19 42 6 78 8 81 6 10 -10 21 -151 13 -159 -6 -6 -36
-10 -68 -10 -46 1 -69 -5 -111 -29 -29 -17 -55 -28 -58 -25 -2 2 0 16 6 31 14
37 6 46 -39 46 -51 0 -101 35 -128 90 -23 44 -30 80 -15 80 4 0 27 -5 51 -11z
m-913 -293 c3 -13 4 -34 2 -46 -3 -21 -6 -20 -53 23 l-50 46 47 1 c42 0 48 -3
54 -24z m6 -126 c4 0 8 -16 8 -35 0 -19 -4 -35 -9 -35 -23 0 -211 145 -211
162 0 5 14 15 32 22 32 14 33 13 102 -50 39 -35 74 -64 78 -64z m-38 -100 l43
-23 7 -105 c3 -58 6 -130 6 -160 0 -47 -2 -53 -17 -47 -68 25 -381 95 -431 95
-23 0 -24 2 -17 46 11 76 34 155 61 208 30 60 46 80 97 117 l38 28 85 -68 c46
-38 104 -79 128 -91z m1116 -289 c137 -24 270 -60 270 -74 0 -23 -43 -137 -52
-137 -5 0 -53 11 -107 25 -227 57 -336 70 -611 69 -214 0 -274 -4 -375 -22
-65 -11 -120 -20 -121 -19 -1 1 -4 15 -6 32 -3 27 1 31 47 48 85 32 275 76
390 92 142 18 419 12 565 -14z m-1449 -7 c106 -17 176 -33 301 -71 76 -23 87
-29 91 -52 3 -14 4 -27 3 -28 -1 -2 -47 6 -102 16 -54 11 -164 27 -244 36
-247 29 -612 6 -845 -54 l-71 -18 -27 53 -26 53 37 10 c148 40 178 45 412 75
67 8 377 -5 471 -20z"/>
<path d="M2796 3378 c-140 -18 -247 -141 -218 -253 6 -22 13 -49 17 -60 4 -15
-4 -34 -29 -65 -46 -58 -35 -69 45 -46 61 17 64 17 135 -6 55 -17 76 -28 88
-49 36 -60 109 -81 316 -89 18 -1 39 -18 74 -61 55 -68 75 -68 55 0 -7 23 -10
43 -8 45 2 3 48 1 101 -4 149 -12 204 8 234 85 22 58 16 155 -12 192 -46 61
-60 66 -256 80 -101 8 -188 16 -194 17 -5 2 -15 21 -22 43 -15 50 -73 118
-122 143 -51 26 -132 37 -204 28z m178 -53 c87 -42 135 -123 120 -202 -9 -49
-73 -117 -132 -140 -66 -25 -163 -23 -229 6 -44 20 -57 21 -84 12 -48 -16 -52
-14 -28 18 21 29 21 31 5 64 -22 47 -20 115 3 153 24 39 80 85 123 101 48 18
175 11 222 -12z m371 -206 c206 -15 236 -33 243 -145 5 -78 -10 -119 -52 -142
-31 -16 -36 -16 -266 -8 -32 1 -35 -1 -32 -24 4 -25 4 -25 -30 7 -32 30 -37
32 -143 38 -118 8 -185 28 -204 63 -10 18 -6 20 42 26 99 13 204 96 222 177 6
27 10 29 38 25 18 -3 100 -11 182 -17z"/>
<path d="M2694 3224 c-8 -32 19 -65 38 -46 9 9 14 7 24 -6 11 -16 13 -16 31 0
15 14 22 15 31 6 19 -19 30 3 20 40 -10 38 -23 40 -49 10 -15 -19 -18 -20 -19
-6 0 23 -18 32 -35 18 -11 -9 -15 -9 -15 -1 0 22 -20 11 -26 -15z"/>
<path d="M2890 3221 c0 -37 22 -57 40 -36 10 12 16 13 27 4 22 -19 38 3 21 30
-9 15 -20 21 -36 18 -12 -2 -25 0 -28 4 -11 19 -24 8 -24 -20z"/>
<path d="M2712 3095 c2 -14 8 -26 13 -26 6 0 11 12 13 26 2 18 -1 25 -13 25
-12 0 -15 -7 -13 -25z"/>
<path d="M2780 3097 c0 -12 4 -29 10 -37 7 -12 12 -12 28 4 15 13 21 14 25 4
4 -10 7 -11 18 0 18 17 -4 37 -48 45 -29 6 -33 4 -33 -16z"/>
<path d="M2907 3113 c-15 -15 -5 -23 31 -24 31 -1 33 -2 13 -8 -42 -12 -38
-33 5 -29 42 3 56 26 34 53 -13 15 -71 21 -83 8z"/>
<path d="M3135 3089 c-5 -15 -1 -28 13 -42 20 -19 22 -19 46 -3 24 15 26 15
38 -4 15 -24 34 -26 42 -5 8 22 26 18 26 -5 0 -21 24 -28 35 -10 4 7 12 7 25
0 25 -13 30 -13 30 5 0 21 -84 59 -114 51 -14 -3 -28 -2 -31 4 -8 13 -65 13
-65 0 0 -5 -5 -10 -10 -10 -6 0 -10 7 -8 16 5 26 -19 28 -27 3z"/>
<path d="M3423 3054 c-27 -12 -11 -25 25 -22 20 2 36 8 35 13 -3 11 -41 17
-60 9z"/>
<path d="M3087 2963 c-4 -3 -7 -17 -7 -30 0 -27 24 -40 44 -24 7 6 20 9 29 5
21 -8 32 13 16 32 -8 10 -21 13 -36 9 -13 -3 -23 -1 -23 5 0 11 -13 13 -23 3z"/>
<path d="M3210 2930 c0 -40 24 -48 60 -21 35 26 42 26 38 4 -4 -24 51 -31 64
-9 11 20 22 20 64 0 38 -18 54 -13 35 10 -17 20 -76 39 -100 31 -11 -3 -29 -2
-39 4 -13 7 -22 7 -30 -1 -7 -7 -12 -9 -12 -5 0 4 -10 3 -21 -4 -18 -9 -24 -8
-31 5 -14 26 -28 19 -28 -14z"/>
<path d="M1445 3171 c-73 -19 -123 -60 -150 -123 -21 -51 -19 -87 8 -138 41
-78 125 -100 229 -60 l52 20 46 -30 c26 -17 52 -30 57 -30 20 0 21 27 5 75
-14 45 -14 51 1 77 38 66 8 152 -66 189 -44 23 -134 33 -182 20z m135 -47 c44
-8 78 -40 86 -80 5 -29 2 -40 -17 -60 -21 -22 -22 -29 -12 -64 11 -42 4 -51
-17 -25 -16 20 -35 19 -98 -5 -92 -35 -156 -19 -188 48 -34 73 19 162 111 187
47 13 64 13 135 -1z"/>
<path d="M1536 3081 c-9 -15 2 -31 20 -31 11 0 14 -10 12 -37 -4 -51 21 -51
41 0 12 33 12 40 0 52 -20 19 -65 29 -73 16z"/>
<path d="M1385 3036 c-34 -42 -39 -66 -12 -66 6 0 21 12 34 28 l22 27 1 -31
c0 -45 23 -61 55 -40 32 21 50 55 36 69 -7 7 -15 6 -26 -3 -18 -15 -18 -15
-31 25 -14 44 -37 42 -79 -9z"/>
<path d="M1490 2754 c-84 -5 -192 -25 -222 -40 -45 -23 -51 -46 -39 -137 9
-67 15 -86 35 -102 15 -12 29 -40 38 -74 7 -30 18 -56 25 -58 7 -3 28 20 48
51 l37 55 66 6 c282 25 272 20 273 146 1 47 -3 95 -10 106 -19 36 -120 55
-251 47z m183 -55 l37 -10 0 -84 c0 -47 -1 -85 -2 -86 -2 0 -69 -7 -150 -14
-81 -7 -154 -17 -163 -22 -9 -5 -25 -22 -35 -38 l-19 -29 -6 30 c-4 16 -20 40
-36 54 -21 19 -28 35 -29 65 -3 63 0 89 9 104 21 33 307 54 394 30z"/>
<path d="M1415 2651 c-8 -14 25 -91 40 -91 6 0 20 9 30 21 l19 20 16 -20 c10
-14 19 -18 29 -11 13 7 12 14 -4 49 -21 46 -44 53 -68 19 l-16 -23 -7 23 c-6
22 -28 30 -39 13z"/>
<path d="M1346 2631 c-4 -5 -4 -16 0 -24 3 -9 -3 -16 -16 -20 -34 -9 -18 -32
21 -32 37 0 46 16 35 61 -6 24 -30 32 -40 15z"/>
<path d="M1585 2631 c-9 -16 3 -31 26 -31 10 0 19 -6 19 -14 0 -19 30 -29 36
-12 3 8 4 25 2 38 -2 19 -10 24 -40 26 -20 2 -39 -2 -43 -7z"/>
<path d="M1450 2305 c-79 -25 -140 -102 -140 -178 0 -49 39 -117 80 -138 45
-24 96 -24 167 1 l56 20 45 -30 c25 -17 49 -30 54 -30 18 0 20 33 4 82 -15 48
-15 51 4 75 11 15 20 41 20 61 0 112 -146 181 -290 137z m145 -36 c86 -22 125
-86 85 -141 -17 -23 -20 -38 -15 -64 6 -37 0 -41 -28 -19 -16 12 -25 11 -62
-5 -106 -46 -186 -30 -214 43 -27 72 23 158 106 184 49 15 75 15 128 2z"/>
<path d="M1552 2198 c-7 -7 -12 -20 -12 -30 0 -24 -7 -23 -34 9 -18 21 -28 25
-49 19 -21 -5 -27 -13 -27 -32 0 -22 3 -25 23 -20 16 4 28 -1 40 -14 24 -28
65 -26 76 3 5 13 16 29 25 36 12 10 14 17 5 27 -14 17 -31 18 -47 2z"/>
<path d="M2302 2655 c-25 -29 -43 -31 -77 -9 -23 15 -25 15 -32 -1 -15 -40 78
-73 118 -42 22 17 41 55 34 67 -10 16 -20 12 -43 -15z"/>
<path d="M3433 2504 c-13 -36 51 -60 77 -29 9 11 10 18 1 28 -15 19 -71 19
-78 1z"/>
<path d="M3621 2510 c-7 -4 -11 -18 -9 -31 4 -28 48 -39 66 -16 9 11 6 18 -17
34 -16 13 -33 18 -40 13z"/>
<path d="M3551 2497 c-6 -6 -11 -17 -11 -25 0 -19 44 -11 48 9 4 20 -22 31
-37 16z"/>
</g>
</svg>
